<?xml version="1.0" encoding="iso-8859-1"?>
<!-- Generator: Adobe Illustrator 16.0.0, SVG Export Plug-In . SVG Version: 6.00 Build 0)  -->
<!DOCTYPE svg PUBLIC "-//W3C//DTD SVG 1.1//EN" "http://www.w3.org/Graphics/SVG/1.1/DTD/svg11.dtd">
<svg version="1.1" id="Capa_1" xmlns="http://www.w3.org/2000/svg" xmlns:xlink="http://www.w3.org/1999/xlink" x="0px" y="0px"
	 width="56.25px" height="56.25px" viewBox="0 0 56.25 56.25" style="enable-background:new 0 0 56.25 56.25;" xml:space="preserve"
	>
<g>
	<g>
		<path d="M56.25,39.145v-1.042V10.325c0-2.301-1.865-4.167-4.167-4.167H4.167C1.866,6.158,0,8.023,0,10.325v27.778v1.042v10.947
			h56.25V39.145z M21.057,18.66c0-2.301,1.669-3.333,3.727-2.303l8.864,4.432c2.06,1.029,2.06,2.697,0,3.726l-8.864,4.433
			c-2.058,1.028-3.727-0.002-3.727-2.303V18.66z M54.195,48.009H2.054v-7.823h52.141V48.009z"/>
		<path d="M38.013,46.061l2.982-1.711c0.513-0.294,0.513-0.772,0-1.066l-2.982-1.71c-0.515-0.295-0.932-0.054-0.932,0.538v3.41
			C37.083,46.113,37.498,46.355,38.013,46.061z"/>
		<path d="M42.521,46.061l2.712-1.557v0.939c0,0.591,0.325,1.071,0.726,1.071c0.402,0,0.727-0.479,0.727-1.071v-3.252
			c0-0.593-0.324-1.072-0.727-1.072c-0.4,0-0.726,0.479-0.726,1.072v0.939l-2.712-1.558c-0.514-0.295-0.931-0.054-0.931,0.538v3.41
			C41.592,46.113,42.008,46.355,42.521,46.061z"/>
		<path d="M26.906,45.82l2.982-1.711c0.513-0.295,0.513-0.772,0-1.065l-2.982-1.712c-0.515-0.295-0.931-0.053-0.931,0.54v3.408
			C25.976,45.873,26.392,46.115,26.906,45.82z"/>
		<path d="M14.759,44.35l2.982,1.711c0.513,0.295,0.93,0.053,0.93-0.539v-3.409c0-0.591-0.417-0.833-0.93-0.538l-2.982,1.71
			C14.246,43.578,14.246,44.057,14.759,44.35z"/>
		<path d="M9.793,46.515c0.401,0,0.727-0.479,0.727-1.071v-0.939l2.713,1.557c0.515,0.295,0.93,0.053,0.93-0.539v-3.409
			c0-0.591-0.416-0.833-0.93-0.538l-2.713,1.557v-0.938c0-0.592-0.325-1.071-0.727-1.071c-0.401,0-0.727,0.479-0.727,1.071v3.252
			C9.067,46.034,9.393,46.515,9.793,46.515z"/>
	</g>
</g>
<g>
</g>
<g>
</g>
<g>
</g>
<g>
</g>
<g>
</g>
<g>
</g>
<g>
</g>
<g>
</g>
<g>
</g>
<g>
</g>
<g>
</g>
<g>
</g>
<g>
</g>
<g>
</g>
<g>
</g>
</svg>
